<?xml version="1.0" encoding="utf-8"?>
<!-- Generator: Adobe Illustrator 19.0.0, SVG Export Plug-In . SVG Version: 6.00 Build 0)  -->
<svg version="1.0" id="Layer_1" xmlns="http://www.w3.org/2000/svg" xmlns:xlink="http://www.w3.org/1999/xlink" x="0px" y="0px"
	 width="1400px" height="980px" viewBox="0 0 1400 980" enable-background="new 0 0 1400 980" xml:space="preserve">
<g id="XMLID_37_">
	<rect id="XMLID_184_" fill="#90D8F8" width="1400" height="582.7"/>
	<path id="XMLID_29_" fill="#B5E4FA" d="M0,430.5c0,0,245-106.7,516.1,18.6C905,628.9,995,246.8,1400,492.9V980H0V430.5z"/>
	<path id="XMLID_183_" fill="#79AB41" d="M1400,661.2V980H570.7l72-199c0,0,53.2,8.1,139.3,9c15.2,0.2,31.5,0.1,48.8-0.2
		C977.4,786.7,1190.4,761.2,1400,661.2z"/>
	<path id="XMLID_179_" fill="#71A040" d="M1400,863.7V980H945.7L767.8,795.2l14.3-5.2c15.2,0.2,31.5,0.1,48.8-0.2
		C908.8,822.7,1182,926.1,1400,863.7z"/>
	<g id="XMLID_107_" opacity="0.71">
		<path id="XMLID_116_" fill-rule="evenodd" clip-rule="evenodd" fill="#00924F" d="M95.8,566.1c0.6-2.2,1-4.6,1-7
			c0-14.1-11.4-25.5-25.5-25.5c-12.8,0-23.4,9.4-25.3,21.8c-13.9,3.1-24.3,15.5-24.3,30.4c0,17.2,13.9,31.1,31.1,31.1
			c5.1,0,10-1.3,14.3-3.5c4.6,3.3,10.1,5.2,16.2,5.2c15.3,0,27.7-12.4,27.7-27.7C111,580,104.8,570.7,95.8,566.1z"/>
		<path id="XMLID_115_" fill-rule="evenodd" clip-rule="evenodd" fill="#014324" d="M89.5,567.3c0.6-2.2,1-4.6,1-7
			c0-14.1-11.4-25.5-25.5-25.5c-0.6,0-1.1,0-1.7,0.1c-9,3-15.8,10.9-17.2,20.5c-13.9,3.1-24.3,15.5-24.3,30.4
			c0,17.2,13.9,31.1,31.1,31.1c0.9,0,1.8-0.1,2.7-0.1c1.8-0.5,3.5-1.3,5.2-2.1c0.4,0.3,0.8,0.6,1.3,0.8c1.8-0.5,3.4-1.2,5.1-2.1
			c4.6,3.3,10.1,5.2,16.2,5.2c0.7,0,1.4,0,2.1-0.1c11.2-3.6,19.3-14.1,19.3-26.4C104.7,581.2,98.5,571.9,89.5,567.3z"/>
		<path id="XMLID_114_" fill-rule="evenodd" clip-rule="evenodd" fill="#006838" d="M104.7,592c0-10.8-6.2-20.1-15.2-24.7
			c0.6-2.2,1-4.6,1-7c0-13.8-11-25-24.6-25.5c-7.3,4-12.5,11.7-13.8,20.8c-13.9,3.4-24.3,17-24.3,33.2c0,8.8,3,16.8,8,22.8
			c4.9,3.2,10.8,5.1,17.1,5.1c0.9,0,1.8-0.1,2.7-0.1c1.8-0.5,3.5-1.3,5.2-2.1c0.4,0.3,0.8,0.6,1.3,0.8c1.8-0.5,3.4-1.2,5.1-2.1
			c4.6,3.3,10.1,5.2,16.2,5.2c0.7,0,1.4,0,2.1-0.1C96.6,614.9,104.7,604.4,104.7,592z"/>
		<path id="XMLID_113_" fill-rule="evenodd" clip-rule="evenodd" fill="#672D10" d="M62,644.8c0,0,13.3-45-15.2-61.6
			c0,0,13.9,5.3,18.3,24.2c0,0-1.6-44,18.2-59.7c0,0-16.3,19.3-16.5,53.2c0,0,6.7-16.7,21.6-19.1c0,0-29.8,2.9-17.1,63
			C71.3,644.8,66.5,647.8,62,644.8z"/>
		<path id="XMLID_112_" fill-rule="evenodd" clip-rule="evenodd" fill="#672D10" d="M69,572.6c0,0,0.4-10.5-5.7-16.3
			c0,0,6.3,4.8,7.9,15.1L69,572.6z"/>
		<path id="XMLID_111_" fill-rule="evenodd" clip-rule="evenodd" fill="#672D10" d="M71.3,594.9c0,0,4.1-4,15.1,2
			c0,0-7.4-5.2-15.1,0V594.9z"/>
		<path id="XMLID_110_" fill-rule="evenodd" clip-rule="evenodd" fill="#672D10" d="M59.1,593.6c0,0-5.5-12.8,0-25.7
			c0,0-5,11.7,2,28.9L59.1,593.6z"/>
		<path id="XMLID_109_" fill-rule="evenodd" clip-rule="evenodd" fill="#672D10" d="M54.6,588.4c0,0-6.8-1.6-13.4,1.2
			c0,0,10.5-2.2,14.4,0L54.6,588.4z"/>
		<path id="XMLID_108_" fill-rule="evenodd" clip-rule="evenodd" fill="#924521" d="M71.3,596.9c-8,13.3-3.1,42.1-1.8,48.7
			c1.1-0.4,1.8-0.8,1.8-0.8c-5.1-23.8-3.4-38.6,0.4-47.9H71.3z"/>
	</g>
	<g id="XMLID_97_">
		<path id="XMLID_106_" fill-rule="evenodd" clip-rule="evenodd" fill="#00924F" d="M195.5,490.8c1.3-4.5,2-9.2,2-14.1
			c0-28.5-23.1-51.6-51.6-51.6c-25.9,0-47.4,19.1-51.1,44c-28.1,6.3-49.2,31.4-49.2,61.4c0,34.8,28.2,62.9,62.9,62.9
			c10.4,0,20.2-2.5,28.8-7c9.2,6.6,20.5,10.5,32.7,10.5c31,0,56.1-25.1,56.1-56.1C226.2,519,213.7,500.1,195.5,490.8z"/>
		<path id="XMLID_105_" fill-rule="evenodd" clip-rule="evenodd" fill="#014324" d="M182.7,493.3c1.3-4.5,2-9.2,2-14.1
			c0-28.5-23.1-51.6-51.6-51.6c-1.1,0-2.3,0.1-3.4,0.1c-18.2,6-32,21.9-34.9,41.4c-28.1,6.3-49.2,31.4-49.2,61.4
			c0,34.8,28.2,62.9,62.9,62.9c1.9,0,3.7-0.1,5.5-0.3c3.6-1.1,7.1-2.5,10.5-4.3c0.8,0.6,1.7,1.2,2.6,1.7c3.6-1.1,7-2.5,10.2-4.2
			c9.2,6.6,20.5,10.5,32.7,10.5c1.4,0,2.8-0.1,4.2-0.2c22.6-7.2,39-28.4,39-53.5C213.4,521.5,200.9,502.6,182.7,493.3z"/>
		<path id="XMLID_104_" fill-rule="evenodd" clip-rule="evenodd" fill="#006838" d="M213.4,543.3c0-21.8-12.5-40.7-30.7-50
			c1.3-4.5,2-9.2,2-14.1c0-27.9-22.2-50.6-49.8-51.6c-14.7,8.1-25.3,23.7-27.8,42.1c-28.1,6.9-49.2,34.4-49.2,67.2
			c0,17.8,6.1,33.9,16.2,46.2c9.9,6.5,21.8,10.3,34.5,10.3c1.9,0,3.7-0.1,5.5-0.3c3.6-1.1,7.1-2.5,10.5-4.3c0.8,0.6,1.7,1.2,2.6,1.7
			c3.6-1.1,7-2.5,10.2-4.2c9.2,6.6,20.5,10.5,32.7,10.5c1.4,0,2.8-0.1,4.2-0.2C197,589.6,213.4,568.4,213.4,543.3z"/>
		<path id="XMLID_103_" fill-rule="evenodd" clip-rule="evenodd" fill="#672D10" d="M127.1,650c0,0,26.9-91-30.7-124.6
			c0,0,28.2,10.6,37,48.9c0,0-3.2-89,36.7-120.7c0,0-33.1,39-33.3,107.6c0,0,13.5-33.8,43.6-38.6c0,0-60.3,5.8-34.5,127.4
			C145.9,650,136.2,656.2,127.1,650z"/>
		<path id="XMLID_102_" fill-rule="evenodd" clip-rule="evenodd" fill="#672D10" d="M141.4,504.1c0,0,0.9-21.2-11.5-32.9
			c0,0,12.7,9.8,16,30.5L141.4,504.1z"/>
		<path id="XMLID_101_" fill-rule="evenodd" clip-rule="evenodd" fill="#672D10" d="M145.9,549.2c0,0,8.4-8,30.6,4
			c0,0-15-10.6-30.6,0V549.2z"/>
		<path id="XMLID_100_" fill-rule="evenodd" clip-rule="evenodd" fill="#672D10" d="M121.3,546.6c0,0-11.2-26,0-51.9
			c0,0-10.1,23.7,4.1,58.5L121.3,546.6z"/>
		<path id="XMLID_99_" fill-rule="evenodd" clip-rule="evenodd" fill="#672D10" d="M112.1,536c0,0-13.8-3.2-27.1,2.5
			c0,0,21.3-4.4,29.1,0L112.1,536z"/>
		<path id="XMLID_98_" fill-rule="evenodd" clip-rule="evenodd" fill="#924521" d="M145.9,553.1c-16.1,26.9-6.2,85.2-3.7,98.5
			c2.3-0.8,3.7-1.7,3.7-1.7c-10.2-48.2-6.9-78.2,0.8-96.8H145.9z"/>
	</g>
	<path id="XMLID_28_" fill="#8DC63F" d="M0,653.3c0,0,260-48.9,474.3-3S1029,967,1400,927v53H0V653.3z"/>
	<path id="XMLID_57_" fill="#79AB41" d="M724.5,794.8c0,0-182.4-55.3-239.9-63s-237.5-27.5-356-20.6s-21.7-94.6,158.5-68.8
		c180.3,25.8,326.8,45.6,437.4,119.1V794.8z"/>
	<g id="XMLID_27_">
		<g id="XMLID_55_">
			<g id="XMLID_56_">
				<path id="XMLID_51_" fill="#DEAE87" d="M713.2,699l21.7-0.7l50-54c0,0-0.4-15.5,8.8-16.5c6.5-0.7,9.6,10.5-2.9,20.5
					c0,0,11-11.1,13.7-4c2.7,7.1-4.9,5.9-12.2,13.9c0,0,12.7-6.8,16-0.1c3.3,6.7-5.2,4.2-15.2,10.5c0,0,13.8-4.3,15.9,5.3
					c2.1,9.6-10.8,0.2-17.1,4.1c0,0,10.3-0.3,10.8,6.8c0.5,7.1-11.8-2.7-17.3,2.5L752.5,739l-19.7-19.6l-23.8-2.2L713.2,699z"/>
				<path id="XMLID_52_" fill="#EEC19C" d="M695.4,746.9l21.3,4.3l61-41.1c0,0,3.2-15.2,12.4-14c6.4,0.8,7,12.4-7.5,19.3
					c0,0,13.2-8.3,14.2-0.8c1,7.5-6.2,4.6-15,10.7c0,0,13.9-3.7,15.6,3.6s-6,2.9-17.2,6.7c0,0,14.4-1,14.3,8.8s-10.6-2.3-17.6,0.1
					c0,0,10.1,2.1,9,9.1c-1.1,7-10.8-5.3-17.4-1.5l-43.9,42.7l-14.7-23.6l-22.6-7.6L695.4,746.9z"/>
				<polygon id="XMLID_50_" fill="#1F4461" points="327.3,635.6 518.4,637.7 723.1,694.8 715,731.8 514.7,677 328.7,691.7 				"/>
				<path id="XMLID_49_" fill="#386B95" d="M249.2,651.1c0,0,32.4,69,97.7,56.1l152.1,8.2l195.4,59.2l15.4-34.1l-180.1-50.3
					L364,660.4c0,0-0.3-30-18.3-50.1C345.7,610.3,298.7,647.4,249.2,651.1z"/>
				<g id="XMLID_96_">
					<polygon id="XMLID_48_" fill="#A7A9AC" points="539,584.7 559.9,701.5 397.1,695.5 455.8,581.1 					"/>
					<polygon id="XMLID_47_" points="669.7,589.8 559.9,701.5 539,584.7 608.8,512.2 					"/>
					<polygon id="XMLID_46_" fill="#999B9E" points="559.9,701.5 560.2,711.2 397.6,707.3 397.1,695.5 					"/>
					<polygon id="XMLID_45_" fill="#939598" points="675,591.6 564.2,704 559.9,701.5 669.7,589.8 					"/>
					<polygon id="XMLID_44_" fill="#A7A9AC" points="608.8,512.2 612.3,512.1 675,591.6 669.7,589.8 					"/>
					<polygon id="XMLID_43_" fill="#EBD467" points="562.9,679.4 653.6,587.7 608.5,524.2 545.4,586.3 					"/>
					<polygon id="XMLID_42_" fill="#95979A" points="530.4,589.4 540.8,684.6 449,681.6 477.1,586.8 					"/>
					<polygon id="XMLID_41_" fill="#95979A" points="465.4,614.1 456.4,644.9 427.7,644.2 443.3,612.9 					"/>
				</g>
				<g id="XMLID_91_">
					<path id="XMLID_10_" fill="#EEC19C" d="M476.2,620c0,0,6.8,4.2,16.4-3c9.7-7.3,13.8-7.8,24.7-5.4c10.9,2.4,8.5-5.5,8.5-5.5
						s-11.9-5.3-17.6-4c0,0,6.8-5,16.5-3.6c0,0,5.2-0.8,4.5-6.1c0,0-16.5-5.7-28.6,3.6c0,0,4.3-8.9,18-9.1c0,0,3.3-0.5,2-5.3
						c0,0-18.8-3.7-28.7,9.9c-9.9,13.6-18.5,17.8-18.5,17.8L476.2,620z"/>
					<path id="XMLID_54_" fill="#EEC19C" d="M481,621.2c0,0,8.9,3.4,16.6,2.3c7.6-1.1,13.9,1,13.9,1s2.2-7-6.4-7.4
						c-8.6-0.4-13.5-3.7-13.5-3.7S480.5,615.6,481,621.2z"/>
					<polygon id="XMLID_40_" fill="#EEC19C" points="473.5,608.4 489.9,607.5 492.1,620.4 476.9,620.1 					"/>
					<path id="XMLID_38_" fill="#617B8A" d="M327.2,448.8l26.2,129.3c0,0,93.8,25.6,122.2,26.7c0,0,3.7,8.7-0.2,21.3
						c0,0-90.1,0.2-144.2-24.6l-40.8-110C290.5,491.5,289.5,445,327.2,448.8z"/>
				</g>
				<path id="XMLID_36_" fill="#EEC19C" d="M317.6,307.7c50.1-51.8,93.1,1.3,93.1,1.3s23.5,38.8,15.6,109.4l-30.4-3.7l0,0l-7.1,50.4
					c-48.9-6.1-65.8-47.2-65.8-47.2l-12.3-12.5C288.5,328.9,317.6,307.7,317.6,307.7z"/>
				<circle id="XMLID_34_" fill="#FFFFFF" cx="389" cy="358.8" r="12.3"/>
				<circle id="XMLID_33_" cx="392.9" cy="365.6" r="5.5"/>
				<path id="XMLID_32_" fill="#D6A483" d="M345.8,435.6l-19.2,23.8l-24.3-18.5l21.5-26.1C323.8,414.8,341.7,423.2,345.8,435.6z"/>
				<path id="XMLID_31_" fill="#9BA9B2" d="M343.6,465.2c0,0-27.3,88.6-8.8,175.2c0,0-32.5,35.7-85.6,10.7
					c0,0-32.6-129.2,38.1-212.7C287.3,438.3,322.6,410.3,343.6,465.2z"/>
				<path id="XMLID_30_" fill="#8095A0" d="M320.2,434.1c8.2,4.1,16.6,13.1,23.5,31.1c0,0-27.3,88.6-8.8,175.2
					c0,0-16.6,18.2-45.5,19.5C269.6,528,316,441.5,320.2,434.1z"/>
				<path id="XMLID_25_" fill="#E5B28F" d="M323,417.9l-12.3-12.5c-22.3-76.5,6.9-97.7,6.9-97.7c16.6-17.2,32.4-22.8,46.1-22.7
					l-0.3,17C345.3,355.5,347.6,426,349,449.4C330.3,435.5,323,417.9,323,417.9z"/>
				<polygon id="XMLID_23_" fill="#E5B28F" points="426.3,418.4 392.2,410.1 395.9,414.7 				"/>
				<path id="XMLID_22_" fill="#291E10" d="M411.5,342.2c0,0-24.1-20.1-44.3-3.4l2.2,4.8c0,0,13.1-15.2,39,2.1L411.5,342.2z"/>
				<g id="XMLID_73_">
					<path id="XMLID_19_" opacity="0.4" fill="#F1F2F2" d="M406.4,352.8c0,0-0.8,13.6-8.1,29.5c0,0-8.4,3.1-20.8-1.6
						c0,0,1.1-24.2,5.9-30C383.3,350.7,396.8,347.9,406.4,352.8z"/>
					<path id="XMLID_75_" fill="#2E2E2F" d="M378.8,355.3c-2.9,14-3.2,27.1-3.2,27.1c15,5.5,23.4,2.1,23.4,2.1
						c6.7-7.6,9.8-30.1,9.8-30.1c12.8-2.6,19,1.7,19,1.7c2.7-1.6,0.1-2.8,0.1-2.8c-9.4-5.7-19.1-1.8-19.1-1.8
						c-12.9-7.6-28.1-2.9-28.1-2.9l-40.5-10.5l-0.4,2.1l18.2,4.9C372.3,349.5,378.8,355.3,378.8,355.3z M383.3,350.7
						c0,0,13.4-2.7,23.1,2.2c0,0-0.8,13.6-8.1,29.5c0,0-8.4,3.1-20.8-1.6C377.5,380.7,378.5,356.5,383.3,350.7z"/>
					
						<linearGradient id="XMLID_118_" gradientUnits="userSpaceOnUse" x1="1102.2108" y1="342.6275" x2="1105.7091" y2="359.5069" gradientTransform="matrix(-0.9994 3.586389e-02 3.586389e-02 0.9994 1483.9871 -30.5716)">
						<stop  offset="0" style="stop-color:#FFFFFF"/>
						<stop  offset="1" style="stop-color:#F1F2F2;stop-opacity:0"/>
					</linearGradient>
					<path id="XMLID_16_" fill="url(#XMLID_118_)" d="M405,353.7c0,0-1.3,12.2-6.2,25.1c0,0-17-9.6-14.8-26.9
						C384,351.8,396.8,349.8,405,353.7z"/>
				</g>
				<path id="XMLID_15_" fill="#FFFFFF" d="M393.6,430.6c0,0-26.8-0.6-33-14.5c0,0,6.2,18.8,32.3,20L393.6,430.6z"/>
				<path id="XMLID_14_" fill="#392814" d="M376,302.8c0,0-7.7,44.2-39.4,62c0,0-0.5-17-0.8-21.5c0,0-23.7,44.4-12.8,74.6
					c0,0-24.5-11-29.3-39.7c0,0-0.6,17,6.2,23.9c0,0-38.9-31.9-3.6-88.5c0,0-9.9,1.9-10.4-2.3c-0.5-4.2,10.7-3.1,10.7-3.1
					s-10.5-2.4-7.5-6.6c3-4.2,9.3-2.1,10.3,2.6c0,0,17.7-47.3,74.6-38.1c0,0,131.4,11,53.9,123c0,0-1.3-69.2-29.6-86.8
					c0,0,15.8,16.2,17.8,45.9C416.1,348,403.5,319.6,376,302.8z"/>
				<path id="XMLID_13_" fill="#4D3A25" d="M299.5,304.1c0,0,17.7-47.3,74.6-38.1c0,0,116,9.7,65.7,103.8
					c8.3-26.5,13.7-76.2-52.3-94.2c0,0,6,6,4.8,12.4c0,0-4.6-9.9-28.7-15c0,0,2.1,23.8-18.1,49.3c0,0,13.2-33.7-0.3-48.6
					C345.2,273.6,318.9,274.5,299.5,304.1z"/>
				<path id="XMLID_12_" fill="#2F200B" d="M398.3,302.1c0,0,15.8,16.2,17.8,45.9c0,0-12.6-28.5-40.1-45.2c0,0-7.7,44.2-39.4,62
					c0,0-0.5-17-0.8-21.5c0,0-23.7,44.4-12.8,74.6c0,0-24.5-11-29.3-39.7c0,0-0.6,17,6.2,23.9c0,0-37.9-31.1-4.9-86.3
					c-12.7,22.5-6.2,46.1-6.2,46.1c1.7-27.4,17.4-41.9,17.4-41.9c-12.2,24.4,3.9,55.8,3.9,55.8c3.6-41.7,29.1-62.9,29.1-62.9
					c-1.6,13,3,38.5,3,38.5c29.8-32.6,26.9-59.3,26.9-59.3c20.8,5.5,29.5,21.3,29.5,21.3c1.7-6.8-7.4-16.7-7.4-16.7
					c44.6,1.8,36.6,92.2,36.6,92.2S426.6,319.7,398.3,302.1z"/>
				<g id="XMLID_64_">
					<polygon id="XMLID_11_" fill="#EEC19C" points="428.2,649.5 445.5,652.2 444.9,666.1 429.1,662.5 					"/>
					<path id="XMLID_9_" fill="#708794" d="M311.7,451.1l-1.5,140.2c0,0,91.8,47.4,121.1,54.9c0,0,1.9,9.8-4.9,22.1
						c0,0-93.7-19.8-144.4-57.6l-18-123.4C264,487.4,273.3,438.8,311.7,451.1z"/>
					<path id="XMLID_2_" fill="#DEAE87" d="M450.2,652.8c0,0,12.7-13.2,20.9-24.6c0,0,5.4,0.4,2.2,10.4S456.9,656.8,450.2,652.8z"/>
					<path id="XMLID_1_" fill="#EEC19C" d="M444.9,666.1c0,0,7.1,7.5,22.5,2.1s20.9-4.6,34.1,2.1s13.2-3.6,13.2-3.6
						s-13.3-10.5-21.3-10.9c0,0,10.8-3.7,22.8,1.5c0,0,7.1,0.9,8.1-5.8c0,0-19.1-12.7-38.5-5.7c0,0,8.9-9.2,26.8-4.7
						c0,0,4.5,0.5,4.6-5.7c0,0-22.9-11.1-40.9,1.9c-18,13-30.8,15-30.8,15L444.9,666.1z"/>
				</g>
				<g id="XMLID_8_">
					<path id="XMLID_53_" fill="#5C354F" d="M348,251.4c0,0,4.1,1.8,7.2,13.5l-15.4,2.7c0,0,2.8-4.3-3.5-7.8
						C336.3,259.8,336.2,245.5,348,251.4z"/>
					<path id="XMLID_7_" fill="#A0668C" d="M332.6,396.5L332.6,396.5c12.9-0.5,23.1-11.4,22.6-24.3l-0.7-19.8
						c-0.5-12.9-11.4-23.1-24.3-22.6h0c-12.9,0.5-23.1,11.4-22.6,24.3l0.7,19.8C308.8,386.8,319.7,397,332.6,396.5z"/>
					<path id="XMLID_6_" fill="#8E5A7C" d="M335.1,330.1c0,0-3.9-79.2,12.9-78.7c0,0-5.1-8.6-20.5,0.7c0,0-17.3,22.5-7.2,80.4
						L335.1,330.1z"/>
					<path id="XMLID_5_" fill="#8D597B" d="M308.3,373.9l-0.7-19.8c-0.5-12.9,9.7-23.9,22.6-24.3c0,0-11.7,33.3,2.4,66.7
						C319.7,397,308.8,386.8,308.3,373.9z"/>
					<path id="XMLID_4_" fill="#5C354F" d="M328.3,374.8L328.3,374.8c2.5-0.1,4.5-2.2,4.4-4.7l-0.4-10.1c-0.1-2.5-2.2-4.5-4.7-4.4h0
						c-2.5,0.1-4.5,2.2-4.4,4.7l0.4,10.1C323.7,373,325.8,374.9,328.3,374.8z"/>
					<path id="XMLID_3_" fill="#754866" d="M336.5,248.2c-18,18.4-9.9,82-9.9,82l-2.7,1.7l-3.8,0.6c-10-57.8,7.2-80.4,7.2-80.4
						C331,250,334,248.8,336.5,248.2z"/>
				</g>
			</g>
		</g>
		<path id="XMLID_26_" fill="#617B8A" d="M308,431.2c0,0,17,20.5,21,45.1c0,0,7.5-5.3,9-23.3C338.1,453,326.8,429.4,308,431.2z"/>
		<path id="XMLID_24_" fill="#D6A483" d="M310.4,431c0,0,12,9.5,20.6,36.2c0,0,4-5.3,4.5-19.4C335.4,447.8,327.5,427.2,310.4,431z"
			/>
	</g>
	<g id="XMLID_71_" opacity="0.83">
		
			<ellipse id="XMLID_83_" transform="matrix(0.9788 -0.2049 0.2049 0.9788 -126.1785 266.9645)" opacity="0.25" fill-rule="evenodd" clip-rule="evenodd" cx="1226" cy="742.7" rx="19.6" ry="4.2"/>
		<path id="XMLID_82_" fill-rule="evenodd" clip-rule="evenodd" fill="#00924F" d="M1257,656.4c0.7-2.4,1.1-5,1.1-7.7
			c0-15.5-12.6-28-28-28c-14.1,0-25.7,10.4-27.7,23.9c-15.3,3.4-26.7,17-26.7,33.3c0,18.9,15.3,34.2,34.2,34.2
			c5.6,0,11-1.4,15.7-3.8c5,3.6,11.1,5.7,17.8,5.7c16.8,0,30.5-13.6,30.5-30.5C1273.6,671.7,1266.9,661.4,1257,656.4z"/>
		<path id="XMLID_81_" fill-rule="evenodd" clip-rule="evenodd" fill="#014324" d="M1250,657.8c0.7-2.4,1.1-5,1.1-7.7
			c0-15.5-12.6-28-28-28c-0.6,0-1.2,0-1.8,0.1c-9.9,3.3-17.4,11.9-18.9,22.5c-15.3,3.4-26.7,17-26.7,33.3
			c0,18.9,15.3,34.2,34.2,34.2c1,0,2-0.1,3-0.1c2-0.6,3.9-1.4,5.7-2.3c0.5,0.3,0.9,0.6,1.4,0.9c1.9-0.6,3.8-1.4,5.6-2.3
			c5,3.6,11.1,5.7,17.8,5.7c0.8,0,1.5,0,2.3-0.1c12.3-3.9,21.2-15.4,21.2-29C1266.7,673.1,1259.9,662.8,1250,657.8z"/>
		<path id="XMLID_80_" fill-rule="evenodd" clip-rule="evenodd" fill="#006838" d="M1266.7,684.9c0-11.9-6.8-22.1-16.7-27.1
			c0.7-2.4,1.1-5,1.1-7.7c0-15.2-12-27.5-27.1-28c-8,4.4-13.7,12.8-15.1,22.9c-15.3,3.7-26.7,18.7-26.7,36.5
			c0,9.6,3.3,18.4,8.8,25.1c5.4,3.5,11.8,5.6,18.7,5.6c1,0,2-0.1,3-0.1c2-0.6,3.9-1.4,5.7-2.3c0.5,0.3,0.9,0.6,1.4,0.9
			c1.9-0.6,3.8-1.4,5.6-2.3c5,3.6,11.1,5.7,17.8,5.7c0.8,0,1.5,0,2.3-0.1C1257.8,710,1266.7,698.5,1266.7,684.9z"/>
		<path id="XMLID_79_" fill-rule="evenodd" clip-rule="evenodd" fill="#672D10" d="M1219.8,742.8c0,0,14.6-49.4-16.7-67.6
			c0,0,15.3,5.8,20.1,26.5c0,0-1.7-48.3,19.9-65.5c0,0-17.9,21.2-18.1,58.4c0,0,7.3-18.3,23.7-21c0,0-32.8,3.2-18.8,69.2
			C1230,742.8,1224.8,746.2,1219.8,742.8z"/>
		<path id="XMLID_78_" fill-rule="evenodd" clip-rule="evenodd" fill="#672D10" d="M1227.6,663.6c0,0,0.5-11.5-6.3-17.8
			c0,0,6.9,5.3,8.7,16.6L1227.6,663.6z"/>
		<path id="XMLID_77_" fill-rule="evenodd" clip-rule="evenodd" fill="#672D10" d="M1230,688.1c0,0,4.5-4.4,16.6,2.2
			c0,0-8.1-5.7-16.6,0V688.1z"/>
		<path id="XMLID_76_" fill-rule="evenodd" clip-rule="evenodd" fill="#672D10" d="M1216.7,686.7c0,0-6.1-14.1,0-28.2
			c0,0-5.5,12.9,2.2,31.8L1216.7,686.7z"/>
		<path id="XMLID_74_" fill-rule="evenodd" clip-rule="evenodd" fill="#672D10" d="M1211.7,680.9c0,0-7.5-1.7-14.7,1.4
			c0,0,11.6-2.4,15.8,0L1211.7,680.9z"/>
		<path id="XMLID_72_" fill-rule="evenodd" clip-rule="evenodd" fill="#924521" d="M1230,690.2c-8.7,14.6-3.4,46.3-2,53.5
			c1.2-0.4,2-0.9,2-0.9c-5.5-26.1-3.8-42.4,0.4-52.6H1230z"/>
	</g>
	<g id="XMLID_59_">
		
			<ellipse id="XMLID_70_" transform="matrix(0.9788 -0.2049 0.2049 0.9788 -120.9096 284.1774)" opacity="0.25" fill-rule="evenodd" clip-rule="evenodd" cx="1311.7" cy="725.9" rx="26.3" ry="5.6"/>
		<path id="XMLID_69_" fill-rule="evenodd" clip-rule="evenodd" fill="#00924F" d="M1353.3,610.2c0.9-3.3,1.4-6.7,1.4-10.3
			c0-20.7-16.8-37.6-37.6-37.6c-18.9,0-34.5,13.9-37.2,32c-20.5,4.6-35.8,22.8-35.8,44.7c0,25.3,20.5,45.8,45.8,45.8
			c7.6,0,14.7-1.8,21-5.1c6.7,4.8,14.9,7.7,23.8,7.7c22.5,0,40.8-18.3,40.8-40.8C1375.6,630.7,1366.5,617,1353.3,610.2z"/>
		<path id="XMLID_68_" fill-rule="evenodd" clip-rule="evenodd" fill="#014324" d="M1343.9,612c0.9-3.3,1.4-6.7,1.4-10.3
			c0-20.7-16.8-37.6-37.6-37.6c-0.8,0-1.6,0-2.5,0.1c-13.3,4.4-23.3,16-25.4,30.1c-20.5,4.6-35.8,22.8-35.8,44.7
			c0,25.3,20.5,45.8,45.8,45.8c1.4,0,2.7-0.1,4-0.2c2.6-0.8,5.2-1.8,7.6-3.1c0.6,0.4,1.2,0.8,1.9,1.2c2.6-0.8,5.1-1.8,7.4-3
			c6.7,4.8,14.9,7.7,23.8,7.7c1,0,2.1-0.1,3.1-0.1c16.5-5.3,28.4-20.7,28.4-38.9C1366.3,632.5,1357.2,618.8,1343.9,612z"/>
		<path id="XMLID_67_" fill-rule="evenodd" clip-rule="evenodd" fill="#006838" d="M1366.3,648.4c0-15.9-9.1-29.6-22.3-36.4
			c0.9-3.3,1.4-6.7,1.4-10.3c0-20.3-16.1-36.8-36.3-37.5c-10.7,5.9-18.4,17.2-20.2,30.6c-20.5,5-35.8,25-35.8,48.9
			c0,12.9,4.5,24.7,11.8,33.6c7.2,4.7,15.8,7.5,25.1,7.5c1.4,0,2.7-0.1,4-0.2c2.6-0.8,5.2-1.8,7.6-3.1c0.6,0.4,1.2,0.8,1.9,1.2
			c2.6-0.8,5.1-1.8,7.4-3c6.7,4.8,14.9,7.7,23.8,7.7c1,0,2.1-0.1,3.1-0.1C1354.3,682,1366.3,666.6,1366.3,648.4z"/>
		<path id="XMLID_66_" fill-rule="evenodd" clip-rule="evenodd" fill="#672D10" d="M1303.5,726c0,0,19.6-66.2-22.3-90.6
			c0,0,20.5,7.7,26.9,35.6c0,0-2.3-64.7,26.7-87.8c0,0-24,28.4-24.2,78.3c0,0,9.8-24.6,31.7-28.1c0,0-43.9,4.2-25.1,92.7
			C1317.1,726,1310.1,730.5,1303.5,726z"/>
		<path id="XMLID_65_" fill-rule="evenodd" clip-rule="evenodd" fill="#672D10" d="M1313.9,619.9c0,0,0.7-15.4-8.4-23.9
			c0,0,9.3,7.1,11.7,22.2L1313.9,619.9z"/>
		<path id="XMLID_63_" fill-rule="evenodd" clip-rule="evenodd" fill="#672D10" d="M1317.1,652.7c0,0,6.1-5.8,22.3,2.9
			c0,0-10.9-7.7-22.3,0V652.7z"/>
		<path id="XMLID_62_" fill-rule="evenodd" clip-rule="evenodd" fill="#672D10" d="M1299.3,650.8c0,0-8.1-18.9,0-37.8
			c0,0-7.4,17.2,3,42.6L1299.3,650.8z"/>
		<path id="XMLID_61_" fill-rule="evenodd" clip-rule="evenodd" fill="#672D10" d="M1292.5,643c0,0-10-2.3-19.7,1.8
			c0,0,15.5-3.2,21.1,0L1292.5,643z"/>
		<path id="XMLID_60_" fill-rule="evenodd" clip-rule="evenodd" fill="#924521" d="M1317.1,655.5c-11.7,19.6-4.5,62-2.7,71.7
			c1.7-0.6,2.7-1.2,2.7-1.2c-7.4-35-5-56.9,0.6-70.4H1317.1z"/>
	</g>
	<g id="XMLID_84_" opacity="0.84">
		
			<ellipse id="XMLID_95_" transform="matrix(0.9996 -2.826664e-02 2.826664e-02 0.9996 -21.9976 27.9748)" opacity="0.25" fill-rule="evenodd" clip-rule="evenodd" cx="978.5" cy="792" rx="14.7" ry="3.1"/>
		<path id="XMLID_94_" fill-rule="evenodd" clip-rule="evenodd" fill="#00924F" d="M1001.7,727.3c0.5-1.8,0.8-3.8,0.8-5.7
			c0-11.6-9.4-21-21-21c-10.6,0-19.3,7.8-20.8,17.9c-11.4,2.6-20,12.8-20,25c0,14.1,11.5,25.6,25.6,25.6c4.2,0,8.2-1,11.7-2.8
			c3.7,2.7,8.3,4.3,13.3,4.3c12.6,0,22.8-10.2,22.8-22.8C1014.2,738.8,1009.1,731.1,1001.7,727.3z"/>
		<path id="XMLID_93_" fill-rule="evenodd" clip-rule="evenodd" fill="#014324" d="M996.5,728.4c0.5-1.8,0.8-3.8,0.8-5.7
			c0-11.6-9.4-21-21-21c-0.5,0-0.9,0-1.4,0.1c-7.4,2.5-13,8.9-14.2,16.9c-11.4,2.6-20,12.8-20,25c0,14.1,11.5,25.6,25.6,25.6
			c0.8,0,1.5,0,2.3-0.1c1.5-0.5,2.9-1,4.3-1.7c0.3,0.2,0.7,0.5,1.1,0.7c1.4-0.4,2.8-1,4.2-1.7c3.7,2.7,8.3,4.3,13.3,4.3
			c0.6,0,1.2,0,1.7-0.1c9.2-2.9,15.9-11.6,15.9-21.8C1009,739.8,1003.9,732.1,996.5,728.4z"/>
		<path id="XMLID_92_" fill-rule="evenodd" clip-rule="evenodd" fill="#006838" d="M1009,748.7c0-8.9-5.1-16.6-12.5-20.3
			c0.5-1.8,0.8-3.8,0.8-5.7c0-11.4-9-20.6-20.3-21c-6,3.3-10.3,9.6-11.3,17.1c-11.4,2.8-20,14-20,27.4c0,7.2,2.5,13.8,6.6,18.8
			c4,2.6,8.9,4.2,14,4.2c0.8,0,1.5,0,2.3-0.1c1.5-0.5,2.9-1,4.3-1.7c0.3,0.2,0.7,0.5,1.1,0.7c1.4-0.4,2.8-1,4.2-1.7
			c3.7,2.7,8.3,4.3,13.3,4.3c0.6,0,1.2,0,1.7-0.1C1002.3,767.5,1009,758.9,1009,748.7z"/>
		<path id="XMLID_90_" fill-rule="evenodd" clip-rule="evenodd" fill="#672D10" d="M973.9,792.1c0,0,11-37-12.5-50.7
			c0,0,11.5,4.3,15.1,19.9c0,0-1.3-36.2,15-49.1c0,0-13.4,15.9-13.6,43.8c0,0,5.5-13.7,17.8-15.7c0,0-24.5,2.4-14.1,51.8
			C981.5,792.1,977.6,794.6,973.9,792.1z"/>
		<path id="XMLID_89_" fill-rule="evenodd" clip-rule="evenodd" fill="#672D10" d="M979.7,732.7c0,0,0.4-8.6-4.7-13.4
			c0,0,5.2,4,6.5,12.4L979.7,732.7z"/>
		<path id="XMLID_88_" fill-rule="evenodd" clip-rule="evenodd" fill="#672D10" d="M981.5,751.1c0,0,3.4-3.3,12.5,1.6
			c0,0-6.1-4.3-12.5,0V751.1z"/>
		<path id="XMLID_87_" fill-rule="evenodd" clip-rule="evenodd" fill="#672D10" d="M971.5,750c0,0-4.6-10.6,0-21.1
			c0,0-4.1,9.6,1.7,23.8L971.5,750z"/>
		<path id="XMLID_86_" fill-rule="evenodd" clip-rule="evenodd" fill="#672D10" d="M967.8,745.7c0,0-5.6-1.3-11,1
			c0,0,8.7-1.8,11.8,0L967.8,745.7z"/>
		<path id="XMLID_85_" fill-rule="evenodd" clip-rule="evenodd" fill="#924521" d="M981.5,752.7c-6.6,10.9-2.5,34.7-1.5,40.1
			c0.9-0.3,1.5-0.7,1.5-0.7c-4.2-19.6-2.8-31.8,0.3-39.4H981.5z"/>
	</g>
	<path id="XMLID_117_" fill="#B5E4FA" d="M1261.7,259.9c-1.9,0-3.7,0.4-5.4,1c-4.7-7.5-13.1-12.4-22.6-12.4c-1.7,0-3.3,0.2-4.9,0.4
		c-2.9-14.4-15.5-25.2-30.7-25.2c-16.3,0-29.6,12.4-31.2,28.3c-2.4-0.8-4.9-1.3-7.5-1.3c-8.6,0-16.2,4.7-20.3,11.6
		c-2.2-1.6-4.9-2.5-7.9-2.5c-7.5,0-13.6,6.1-13.6,13.6c0,7.5,6.1,13.6,13.6,13.6c2.7,0,5.1-0.8,7.2-2.1c3.9,7.6,11.8,12.8,20.9,12.8
		c3.6,0,7.1-0.9,10.1-2.3c3.1,4.8,8.5,8,14.7,8c4.4,0,8.4-1.6,11.5-4.3c4,2.9,8.9,4.7,14.2,4.7c4.9,0,9.5-1.5,13.4-4.1
		c3.2,1.4,6.7,2.1,10.5,2.1c10.1,0,18.9-5.6,23.4-13.8c1.4,0.5,2.9,0.7,4.5,0.7c8,0,14.5-6.5,14.5-14.5
		C1276.1,266.4,1269.6,259.9,1261.7,259.9z"/>
	<path id="XMLID_174_" fill="#B5E4FA" d="M511.3,155.8c-1.9,0-3.7,0.4-5.4,1c-4.7-7.5-13.1-12.4-22.6-12.4c-1.7,0-3.3,0.2-4.9,0.4
		c-2.9-14.4-15.5-25.2-30.7-25.2c-16.3,0-29.6,12.4-31.2,28.3c-2.4-0.8-4.9-1.3-7.5-1.3c-8.6,0-16.2,4.7-20.3,11.6
		c-2.2-1.6-4.9-2.5-7.9-2.5c-7.5,0-13.6,6.1-13.6,13.6c0,7.5,6.1,13.6,13.6,13.6c2.7,0,5.1-0.8,7.2-2.1c3.9,7.6,11.8,12.8,20.9,12.8
		c3.6,0,7.1-0.9,10.1-2.3c3.1,4.8,8.5,8,14.7,8c4.4,0,8.4-1.6,11.5-4.3c4,2.9,8.9,4.7,14.2,4.7c4.9,0,9.5-1.5,13.4-4.1
		c3.2,1.4,6.7,2.1,10.5,2.1c10.1,0,18.9-5.6,23.4-13.8c1.4,0.5,2.9,0.7,4.5,0.7c8,0,14.5-6.5,14.5-14.5
		C525.8,162.3,519.3,155.8,511.3,155.8z"/>
	<path id="XMLID_181_" fill="#B5E4FA" d="M191.6,153.9c0,14.6-11.9,26.5-26.5,26.5c-2.9,0-5.7-0.5-8.2-1.3
		c-8.3,15.1-24.3,25.3-42.8,25.3c-6.8,0-13.2-1.4-19.1-3.9c-7,4.7-15.4,7.4-24.4,7.4c-9.7,0-18.7-3.2-25.9-8.5
		c-5.6,4.9-12.9,7.9-20.9,7.9c-9.4,0-17.9-4.1-23.7-10.6V89.2c10-16.7,28.2-27.8,49.1-27.8c27.8,0,50.9,19.8,56.1,46
		c2.9-0.5,5.8-0.8,8.9-0.8c17.3,0,32.6,9,41.2,22.7c3-1.2,6.3-1.9,9.8-1.9C179.7,127.4,191.6,139.3,191.6,153.9z"/>
	<path id="XMLID_119_" fill="#B5E4FA" d="M303.9,217.8c-2.3,0-4.4,0.4-6.4,1.2c-5.7-9-15.7-14.9-27.1-14.9c-2,0-3.9,0.2-5.8,0.5
		c-3.4-17.2-18.6-30.2-36.9-30.2c-19.5,0-35.6,14.9-37.4,33.9c-2.8-1-5.9-1.5-9-1.5c-10.4,0-19.4,5.6-24.3,13.9
		c-2.7-1.9-5.9-3-9.4-3c-9,0-16.4,7.3-16.4,16.4c0,9,7.3,16.4,16.4,16.4c3.2,0,6.2-0.9,8.7-2.5c4.7,9.1,14.2,15.3,25.1,15.3
		c4.4,0,8.5-1,12.2-2.8c3.7,5.8,10.2,9.6,17.6,9.6c5.3,0,10.1-2,13.8-5.2c4.8,3.5,10.7,5.6,17,5.6c5.9,0,11.5-1.8,16-4.9
		c3.9,1.6,8.1,2.6,12.6,2.6c12.1,0,22.6-6.7,28.1-16.6c1.7,0.6,3.5,0.9,5.4,0.9c9.6,0,17.4-7.8,17.4-17.4
		C321.3,225.5,313.5,217.8,303.9,217.8z"/>
	<path id="XMLID_120_" fill="#B5E4FA" d="M1150.7,185.9c-2.3,0-4.4,0.4-6.4,1.2c-5.7-9-15.7-14.9-27.1-14.9c-2,0-3.9,0.2-5.8,0.5
		c-3.4-17.2-18.6-30.2-36.9-30.2c-19.5,0-35.6,14.9-37.4,33.9c-2.8-1-5.9-1.5-9-1.5c-10.4,0-19.4,5.6-24.3,13.9
		c-2.7-1.9-5.9-3-9.4-3c-9,0-16.4,7.3-16.4,16.4c0,9,7.3,16.4,16.4,16.4c3.2,0,6.2-0.9,8.7-2.5c4.7,9.1,14.2,15.3,25.1,15.3
		c4.4,0,8.5-1,12.2-2.8c3.7,5.8,10.2,9.6,17.6,9.6c5.3,0,10.1-2,13.8-5.2c4.8,3.5,10.7,5.6,17,5.6c5.9,0,11.5-1.8,16-4.9
		c3.9,1.6,8.1,2.6,12.6,2.6c12.1,0,22.6-6.7,28.1-16.6c1.7,0.6,3.5,0.9,5.4,0.9c9.6,0,17.4-7.8,17.4-17.4
		C1168,193.7,1160.3,185.9,1150.7,185.9z"/>
	<g id="XMLID_126_">
		
			<rect id="XMLID_124_" x="479.1" y="206.2" transform="matrix(0.9475 -0.3199 0.3199 0.9475 -42.4145 177.0266)" fill="#00A79D" width="77.1" height="22.8"/>
		
			<rect id="XMLID_123_" x="559.1" y="197.9" transform="matrix(0.9475 -0.3199 0.3199 0.9475 -44.3278 191.5285)" fill="#00A79D" width="3.6" height="65.7"/>
		
			<rect id="XMLID_122_" x="489.4" y="221.4" transform="matrix(0.9475 -0.3199 0.3199 0.9475 -55.5033 170.4957)" fill="#00A79D" width="3.6" height="65.7"/>
		
			<ellipse id="XMLID_121_" transform="matrix(0.9475 -0.3199 0.3199 0.9475 -63.2523 179.9282)" fill="#00A79D" cx="516.1" cy="282.5" rx="16.3" ry="11.5"/>
		
			<ellipse id="XMLID_58_" transform="matrix(0.9475 -0.3199 0.3199 0.9475 -52.0769 200.9609)" fill="#00A79D" cx="585.7" cy="259" rx="16.3" ry="11.5"/>
	</g>
	<g id="XMLID_147_">
		
			<rect id="XMLID_152_" x="1068.6" y="177.7" transform="matrix(0.9929 0.1188 -0.1188 0.9929 29.4522 -127.8352)" fill="#5297B5" width="36.5" height="10.8"/>
		
			<rect id="XMLID_151_" x="1101.8" y="181.9" transform="matrix(0.9929 0.1188 -0.1188 0.9929 31.2746 -129.6115)" fill="#5297B5" width="1.7" height="31.1"/>
		
			<rect id="XMLID_150_" x="1067.2" y="177.8" transform="matrix(0.9929 0.1188 -0.1188 0.9929 30.5383 -125.5338)" fill="#5297B5" width="1.7" height="31.1"/>
		
			<ellipse id="XMLID_149_" transform="matrix(0.9929 0.1188 -0.1188 0.9929 32.6127 -125.989)" fill="#5297B5" cx="1072.9" cy="210.5" rx="7.7" ry="5.4"/>
		
			<ellipse id="XMLID_148_" transform="matrix(0.9929 0.1188 -0.1188 0.9929 33.349 -130.0667)" fill="#5297B5" cx="1107.5" cy="214.7" rx="7.7" ry="5.4"/>
	</g>
	<g id="XMLID_153_">
		
			<rect id="XMLID_158_" x="1159.9" y="112.9" transform="matrix(0.863 -0.5052 0.5052 0.863 101.7053 608.8354)" fill="#5FB0D3" width="26.8" height="7.9"/>
		
			<rect id="XMLID_157_" x="1188.3" y="106.9" transform="matrix(0.863 -0.5052 0.5052 0.863 103.1362 616.9321)" fill="#5FB0D3" width="1.3" height="22.9"/>
		
			<rect id="XMLID_156_" x="1166.3" y="119.8" transform="matrix(0.863 -0.5052 0.5052 0.863 93.584 607.5521)" fill="#5FB0D3" width="1.3" height="22.9"/>
		
			<ellipse id="XMLID_155_" transform="matrix(0.863 -0.5052 0.5052 0.863 91.0284 613.9201)" fill="#5FB0D3" cx="1177.4" cy="139.1" rx="5.7" ry="4"/>
		
			<ellipse id="XMLID_154_" transform="matrix(0.863 -0.5052 0.5052 0.863 100.5806 623.3001)" fill="#5FB0D3" cx="1199.4" cy="126.2" rx="5.7" ry="4"/>
	</g>
	<g id="XMLID_133_">
		
			<rect id="XMLID_138_" x="837" y="212.9" transform="matrix(0.9475 -0.3199 0.3199 0.9475 -25.367 288.8077)" fill="#B73A4A" width="58.9" height="17.4"/>
		
			<rect id="XMLID_137_" x="898.1" y="206.5" transform="matrix(0.9475 -0.3199 0.3199 0.9475 -26.8287 299.8866)" fill="#B73A4A" width="2.8" height="50.2"/>
		
			<rect id="XMLID_136_" x="844.9" y="224.5" transform="matrix(0.9475 -0.3199 0.3199 0.9475 -35.3663 283.8184)" fill="#B73A4A" width="2.8" height="50.2"/>
		
			<ellipse id="XMLID_135_" transform="matrix(0.9475 -0.3199 0.3199 0.9475 -41.2863 291.0244)" fill="#B73A4A" cx="865.3" cy="271.2" rx="12.4" ry="8.8"/>
		
			<ellipse id="XMLID_134_" transform="matrix(0.9475 -0.3199 0.3199 0.9475 -32.7487 307.0926)" fill="#B73A4A" cx="918.4" cy="253.2" rx="12.4" ry="8.8"/>
	</g>
	<g id="XMLID_127_">
		
			<rect id="XMLID_132_" x="644.8" y="159.6" transform="matrix(0.9868 0.1618 -0.1618 0.9868 36.0041 -106.6012)" fill="#386B95" width="55" height="16.3"/>
		
			<rect id="XMLID_131_" x="693.9" y="166.9" transform="matrix(0.9868 0.1618 -0.1618 0.9868 39.9797 -110.0003)" fill="#386B95" width="2.6" height="46.9"/>
		
			<rect id="XMLID_130_" x="642.1" y="158.5" transform="matrix(0.9868 0.1618 -0.1618 0.9868 37.9235 -101.7355)" fill="#386B95" width="2.6" height="46.9"/>
		
			<ellipse id="XMLID_129_" transform="matrix(0.9868 0.1618 -0.1618 0.9868 42.2391 -102.3913)" fill="#386B95" cx="649.6" cy="208.1" rx="11.6" ry="8.2"/>
		
			<ellipse id="XMLID_128_" transform="matrix(0.9868 0.1618 -0.1618 0.9868 44.2954 -110.6562)" fill="#386B95" cx="701.3" cy="216.6" rx="11.6" ry="8.2"/>
	</g>
	<g id="XMLID_139_">
		
			<rect id="XMLID_143_" x="979.9" y="133.6" transform="matrix(0.9868 0.1618 -0.1618 0.9868 38.0442 -156.7358)" fill="#386B95" width="2.4" height="43.1"/>
		
			<ellipse id="XMLID_140_" transform="matrix(0.9868 0.1618 -0.1618 0.9868 42.0128 -157.3389)" fill="#386B95" cx="986.7" cy="179.2" rx="10.7" ry="7.5"/>
		<path id="XMLID_141_" fill="#386B95" d="M985.7,134.1c0,0-3.9-13.2-23.9-14.2c-20-1.1-19.5-14.6-19.5-14.6s-8.7,15.5,3.2,28.9
			c0,0,4.6,6.3,16.9,5.3c12.3-1.1,18.6,13,18.6,13L985.7,134.1z"/>
	</g>
	<g id="XMLID_159_">
		
			<rect id="XMLID_162_" x="1243.8" y="162.1" transform="matrix(0.9868 0.1618 -0.1618 0.9868 44.3089 -199.1304)" fill="#5FB0D3" width="1.1" height="20.6"/>
		
			<ellipse id="XMLID_161_" transform="matrix(0.9868 0.1618 -0.1618 0.9868 46.2039 -199.4184)" fill="#5FB0D3" cx="1247.1" cy="183.9" rx="5.1" ry="3.6"/>
		<path id="XMLID_160_" fill="#5FB0D3" d="M1246.6,162.3c0,0-1.9-6.3-11.4-6.8c-9.6-0.5-9.3-7-9.3-7s-4.1,7.4,1.6,13.8
			c0,0,2.2,3,8.1,2.5c5.9-0.5,8.9,6.2,8.9,6.2L1246.6,162.3z"/>
	</g>
	<g id="XMLID_142_">
		
			<rect id="XMLID_146_" x="736.7" y="291.8" transform="matrix(0.9818 -0.1897 0.1897 0.9818 -45.6219 145.6139)" fill="#39B54A" width="2.1" height="38.7"/>
		
			<ellipse id="XMLID_145_" transform="matrix(0.9818 -0.1897 0.1897 0.9818 -48.9054 148.2743)" fill="#39B54A" cx="750" cy="329.6" rx="9.6" ry="6.8"/>
		<path id="XMLID_144_" fill="#39B54A" d="M735.2,291.9c0,0-7.4-9.9-24.6-4.6c-17.2,5.3-20.9-6.3-20.9-6.3s-2.5,15.7,11.7,23.3
			c0,0,5.9,3.9,15.9-0.8c10-4.7,19.7,5.2,19.7,5.2L735.2,291.9z"/>
	</g>
	<g id="XMLID_170_" opacity="0.46">
		
			<ellipse id="XMLID_20_" transform="matrix(0.9986 5.197892e-02 -5.197892e-02 0.9986 40.1746 -21.1779)" fill="#79AB41" cx="427.2" cy="761.8" rx="17.2" ry="5.9"/>
		
			<ellipse id="XMLID_21_" transform="matrix(0.9986 5.197892e-02 -5.197892e-02 0.9986 44.7148 -21.9939)" fill="#79AB41" cx="445.2" cy="848.7" rx="5.3" ry="3.3"/>
		
			<ellipse id="XMLID_35_" transform="matrix(0.9986 5.197892e-02 -5.197892e-02 0.9986 40.262 -15.4867)" fill="#79AB41" cx="317.9" cy="766.3" rx="7.5" ry="4.3"/>
		
			<ellipse id="XMLID_125_" transform="matrix(0.9986 5.197892e-02 -5.197892e-02 0.9986 40.634 -7.1449)" fill="#79AB41" cx="157.7" cy="777.6" rx="5.1" ry="3"/>
		
			<ellipse id="XMLID_163_" transform="matrix(0.9986 5.197892e-02 -5.197892e-02 0.9986 44.4431 -8.5661)" fill="#79AB41" cx="186.9" cy="850.2" rx="6.7" ry="5"/>
		
			<ellipse id="XMLID_164_" transform="matrix(0.9986 5.197892e-02 -5.197892e-02 0.9986 40.8746 -20.2753)" fill="#79AB41" cx="410.2" cy="775.7" rx="5.5" ry="4.6"/>
		
			<ellipse id="XMLID_165_" transform="matrix(0.9986 5.197892e-02 -5.197892e-02 0.9986 45.662 -41.9477)" fill="#79AB41" cx="829.3" cy="856.9" rx="6.4" ry="3.9"/>
		
			<ellipse id="XMLID_166_" transform="matrix(0.9986 5.197892e-02 -5.197892e-02 0.9986 48.4475 -38.676)" fill="#79AB41" cx="767.8" cy="912.1" rx="7" ry="5.6"/>
		
			<ellipse id="XMLID_167_" transform="matrix(0.9986 5.197892e-02 -5.197892e-02 0.9986 48.586 -34.5185)" fill="#79AB41" cx="687.9" cy="916.8" rx="2.5" ry="3.3"/>
		<ellipse id="XMLID_168_" fill="#79AB41" cx="627.9" cy="913.7" rx="0" ry="3.3"/>
		
			<ellipse id="XMLID_169_" transform="matrix(0.9986 5.197892e-02 -5.197892e-02 0.9986 39.104 -6.0307)" fill="#79AB41" cx="135.5" cy="748.8" rx="12.4" ry="8"/>
		<ellipse id="XMLID_171_" fill="#79AB41" cx="60.1" cy="856.3" rx="43.3" ry="23"/>
		<ellipse id="XMLID_172_" fill="#79AB41" cx="178.5" cy="926.7" rx="30.6" ry="14.6"/>
		<ellipse id="XMLID_173_" fill="#79AB41" cx="233.6" cy="906.4" rx="9.3" ry="7.1"/>
	</g>
</g>
</svg>
